Coordinates
version=1
nRows=4
nColumns=107
inDegrees=yes

Units are S.I. units (second, meters, Newtons, ...)
If the header above contains a line with 'inDegrees', this indicates whether rotational values are in degrees (yes) or radians (no).

endheader
time	sternoclavicular_r2	sternoclavicular_r3	unrotscap_r3	unrotscap_r2	acromioclavicular_r2	acromioclavicular_r3	acromioclavicular_r1	unrothum_r1	unrothum_r3	unrothum_r2	elv_angle	shoulder_elv	shoulder1_r2	shoulder_rot	elbow_flexion	pro_sup	deviation	flexion	proximal_distal_r1	proximal_distal_r3	cmc_flexion	cmc_abduction	mp_flexion	ip_flexion	mcp2_flexion	mcp2_abduction	pm2_flexion	md2_flexion	mcp3_flexion	mcp3_abduction	pm3_flexion	md3_flexion	mcp4_flexion	mcp4_abduction	pm4_flexion	md4_flexion	mcp5_flexion	mcp5_abduction	pm5_flexion	md5_flexion	bicpt_tx	bicpt_ty	bicpt_tz	bicpt2_tx	bicpt2_ty	bicpt2_tz	ptpt_tx	ptpt_ty	ptpt_tz	FCUpt_tx	FCUpt_ty	FCUpt_tz	EDCpt_tx	EDCpt_ty	EDCpt_tz	APLpt_tx	APLpt_ty	APLpt_tz	FPLpt_tx	FPLpt_ty	FPLpt_tz	FPLpt2_tx	FPLpt2_ty	FPLpt2_tz	PEC1pt2_tx	PEC1pt2_ty	PEC1pt2_tz	PEC1pt3_tx	PEC1pt3_ty	PEC1pt3_tz	PEC2pt2_tx	PEC2pt2_ty	PEC2pt2_tz	PEC2pt3_tx	PEC2pt3_ty	PEC2pt3_tz	PEC3pt2_tx	PEC3pt2_ty	PEC3pt2_tz	PEC3pt3_tx	PEC3pt3_ty	PEC3pt3_tz	DELT2pt2a_tx	DELT2pt2a_ty	DELT2pt2a_tz	DELT2pt2_tx	DELT2pt2_ty	DELT2pt2_tz	LAT1pt2_tx	LAT1pt2_ty	LAT1pt2_tz	LAT1pt3_tx	LAT1pt3_ty	LAT1pt3_tz	LAT2pt2_tx	LAT2pt2_ty	LAT2pt2_tz	LAT2pt3_tx	LAT2pt3_ty	LAT2pt3_tz	LAT3pt2_tx	LAT3pt2_ty	LAT3pt2_tz	LAT3pt3_tx	LAT3pt3_ty	LAT3pt3_tz
      1.00000000	     -0.32272769	      0.13669222	     -0.13669222	      0.32272769	     -0.06534579	      0.52810171	      0.23737808	     -0.23737808	     -0.52810171	      0.06534579	     98.38529318	     76.40864950	     -1.71714730	    -21.88993203	     29.07864300	     26.37433689	      0.11061141	     -0.97248398	      0.14010092	     -0.48624199	      4.13920154	     14.15195654	    -35.46869066	    -54.83964376	     28.18453565	     11.05228602	     17.90715425	    -16.19531800	     85.96628586	      3.73058158	     77.87517475	     34.78372988	     79.25282242	    -12.10396661	     79.31170771	     29.15471345	     26.76470607	     -7.49821256	    -13.94875805	      4.93110170	      0.00086183	     -0.03093286	     -0.00483684	      0.01633659	     -0.01809936	     -0.00879444	      0.00560123	     -0.06616010	     -0.00217459	      0.00643707	     -0.18375215	     -0.00021979	     -0.00316491	      0.00085462	      0.00019393	      0.00020299	      0.00008120	      0.00040598	      0.00025982	      0.00077947	      0.00043845	      0.00004186	     -0.00009396	     -0.00011275	      0.00250451	      0.00878700	      0.00611270	     -0.00819271	      0.01978137	     -0.01876258	      0.00250451	      0.00878700	      0.00611270	      0.00055184	      0.01833809	     -0.00963599	      0.00395708	      0.00488634	      0.01598994	      0.00000000	      0.00780825	      0.00000000	     -0.00717393	     -0.03315289	     -0.00643842	      0.01484298	     -0.00049068	     -0.00398203	     -0.00089143	      0.01494215	     -0.00611270	      0.00246206	      0.02156424	     -0.01782870	     -0.00598535	      0.01294703	     -0.00547596	     -0.01248009	      0.02733734	     -0.03060593	     -0.02343201	      0.01447521	     -0.00734373	     -0.01553644	      0.03158227	     -0.03824681
      1.03333333	     -0.32272731	      0.13669206	     -0.13669206	      0.32272731	     -0.06534572	      0.52810109	      0.23737780	     -0.23737780	     -0.52810109	      0.06534572	     98.44596143	     76.40855942	     -1.71820616	    -21.88613669	     28.83440097	     27.31679478	      0.13751411	     -0.98186181	      0.17114815	     -0.49093090	      3.77626837	     13.84668426	    -35.33944686	    -54.62695505	     29.84179499	     10.09946136	     18.77226905	    -15.92717486	     85.44448010	      3.44930209	     77.79266026	     34.81489692	     78.87888307	    -12.24892702	     78.90930356	     28.98901625	     26.85006761	     -7.85410676	    -14.01563184	      4.92352852	      0.00085375	     -0.03090486	     -0.00483233	      0.01636670	     -0.01803301	     -0.00871121	      0.00553160	     -0.06620513	     -0.00225051	      0.00652813	     -0.18373607	     -0.00023581	     -0.00327801	      0.00088913	      0.00019388	      0.00019724	      0.00007889	      0.00039447	      0.00025246	      0.00075738	      0.00042603	      0.00004233	     -0.00008648	     -0.00010378	      0.00250450	      0.00878699	      0.00611269	     -0.00819270	      0.01978134	     -0.01876256	      0.00250450	      0.00878699	      0.00611269	      0.00055184	      0.01833807	     -0.00963598	      0.00395707	      0.00488633	      0.01598993	      0.00000000	      0.00780823	      0.00000000	     -0.00717392	     -0.03315285	     -0.00643841	      0.01484087	     -0.00049056	     -0.00398063	     -0.00089143	      0.01494213	     -0.00611269	      0.00246206	      0.02156421	     -0.01782868	     -0.00598534	      0.01294702	     -0.00547595	     -0.01248008	      0.02733731	     -0.03060590	     -0.02343198	      0.01447519	     -0.00734372	     -0.01553642	      0.03158223	     -0.03824676
      1.06666667	     -0.32179609	      0.13629764	     -0.13629764	      0.32179609	     -0.06515716	      0.52657727	      0.23669286	     -0.23669286	     -0.52657727	      0.06515716	     98.72889866	     76.18808562	     -1.72314435	    -23.40892444	     29.07549674	     33.02343232	      0.24538029	     -0.82132792	      0.28373209	     -0.41066396	      4.10582177	     13.79614255	    -35.51094667	    -52.99728960	     32.16359509	      9.89032624	     18.54322886	    -15.31140976	     85.37675126	      3.01626495	     77.28885049	     35.23177362	     79.41494875	    -12.46081628	     75.92188771	     28.03902013	     29.15751593	     -7.98058629	    -14.78456094	      4.92459212	      0.00086173	     -0.03093250	     -0.00483678	      0.01650577	     -0.01809850	     -0.00818071	      0.00510994	     -0.06647778	     -0.00271021	      0.00708535	     -0.18363329	     -0.00031859	     -0.00396280	      0.00110395	      0.00018333	      0.00027541	      0.00011017	      0.00055083	      0.00035253	      0.00105759	      0.00059489	      0.00004191	     -0.00009328	     -0.00011194	      0.00249728	      0.00876164	      0.00609505	     -0.00816906	      0.01972427	     -0.01870842	      0.00249728	      0.00876164	      0.00609505	      0.00055025	      0.01828516	     -0.00960817	      0.00394874	      0.00487224	      0.01596960	      0.00000000	      0.00776292	      0.00000000	     -0.00715322	     -0.03305719	     -0.00640079	      0.01566594	     -0.00053887	     -0.00457065	     -0.00088886	      0.01489902	     -0.00609505	      0.00245495	      0.02150199	     -0.01777723	     -0.00596807	      0.01290966	     -0.00546015	     -0.01244406	      0.02725843	     -0.03051759	     -0.02336437	      0.01443342	     -0.00732253	     -0.01549159	      0.03149110	     -0.03813640
      1.10000000	     -0.32056838	      0.13577763	     -0.13577763	      0.32056838	     -0.06490858	      0.52456828	      0.23578983	     -0.23578983	     -0.52456828	      0.06490858	     99.23369890	     75.89741276	     -1.73195477	    -25.43683634	     28.77369748	     38.02485337	      0.30572185	     -0.76995492	      0.33840514	     -0.38497746	      3.63041892	     13.41810563	    -35.65774084	    -52.39634560	     34.45382812	      8.31515762	     18.59529742	    -15.24776420	     84.89565982	      2.10816929	     76.65776333	     35.02814192	     79.75072372	    -12.79429840	     73.19433543	     27.21072251	     29.84967589	     -8.95770203	    -14.81787750	      4.91817245	      0.00085174	     -0.03089791	     -0.00483121	      0.01656643	     -0.01801652	     -0.00767826	      0.00474039	     -0.06671674	     -0.00311311	      0.00758196	     -0.18353562	     -0.00037099	     -0.00456297	      0.00130047	      0.00015959	      0.00029140	      0.00011656	      0.00058280	      0.00037299	      0.00111897	      0.00062942	      0.00004301	     -0.00008381	     -0.00010057	      0.00248775	      0.00872821	      0.00607180	     -0.00813790	      0.01964901	     -0.01863705	      0.00248775	      0.00872821	      0.00607180	      0.00054815	      0.01821539	     -0.00957152	      0.00393772	      0.00485365	      0.01594261	      0.00000000	      0.00770338	      0.00000000	     -0.00712593	     -0.03293107	     -0.00635136	      0.01671651	     -0.00060448	     -0.00540866	     -0.00088547	      0.01484217	     -0.00607180	      0.00244559	      0.02141995	     -0.01770941	     -0.00594530	      0.01286041	     -0.00543932	     -0.01239659	      0.02715443	     -0.03040116	     -0.02327523	      0.01437836	     -0.00729459	     -0.01543249	      0.03137096	     -0.03799090
